#!OML:ASF X:\für Bonn\!DataBase\2005_08_12_Daniel\c3d\Daniel.ASF
:FULLY-SPECIFIED
:DEGREES
1750
root 24.0568 17.1185 -32.1152 -177.885 217.835 -183.341
lowerback 13.2572 -4.74343 2.07272
upperback 3.76979 -6.01703 0.85503
thorax -3.54705 -3.01241 0.702187
lowerneck -3.32675 1.42118 -6.09927
upperneck 8.36002 2.21633 0.491595
head 3.20808 0.906954 1.30821
rclavicle -4.12478e-014 -5.56597e-015
rhumerus -43.5191 -25.1727 -70.1429
rradius 14.4964
rwrist 33.5316
rhand -16.3695 15.1967
rfingers 7.12502
rthumb 9.84372 -14.5531
lclavicle -4.12478e-014 -5.56597e-015
lhumerus -54.3594 57.4693 46.7841
lradius 12.2496
lwrist -68.4191
lhand -11.8448 -4.85536
lfingers 7.12502
lthumb 14.2065 24.6388
rfemur -34.7668 6.83799 22.5599
rtibia 34.1936
rfoot -11.924 -3.46554
rtoes -9.91735
lfemur 21.4504 -4.72144 -25.7302
ltibia 13.8218
lfoot -28.001 9.95961
ltoes 1.21297
1751
root 23.9711 17.1003 -32.0067 -177.901 217.747 -183.337
lowerback 13.3242 -4.77271 2.12926
upperback 3.76928 -6.04524 0.872102
thorax -3.58786 -3.02641 0.699475
lowerneck -3.30281 1.43287 -5.87816
upperneck 8.34203 2.21667 0.489891
head 3.19814 0.914822 1.26798
rclavicle -1.97294e-014 1.61016e-014
rhumerus -43.4253 -25.2695 -69.8618
rradius 14.4724
rwrist 33.5588
rhand -16.5137 15.4047
rfingers 7.12502
rthumb 9.70458 -14.3518
lclavicle -1.97294e-014 1.61016e-014
lhumerus -53.4855 56.9721 47.7807
lradius 12.2669
lwrist -67.449
lhand -11.8402 -4.79272
lfingers 7.12502
lthumb 14.211 24.7011
rfemur -34.8735 6.54138 22.7129
rtibia 35.0249
rfoot -11.5543 -3.08075
rtoes -10.1749
lfemur 22.0151 -4.37472 -25.5502
ltibia 13.6004
lfoot -27.648 9.5637
ltoes 0.956453
1752
root 23.883 17.0827 -31.895 -177.878 217.689 -183.377
lowerback 13.3122 -4.7657 2.2444
upperback 3.81101 -6.02145 0.897525
thorax -3.54609 -3.01526 0.655157
lowerneck -3.32409 1.40182 -5.61765
upperneck 8.28352 2.16599 0.418809
head 3.18543 0.897043 1.19649
rclavicle -9.68578e-014 2.38542e-014
rhumerus -43.3234 -25.6214 -69.4183
rradius 14.4234
rwrist 33.7913
rhand -16.5592 15.7078
rfingers 7.12502
rthumb 9.66068 -14.0506
lclavicle -9.68578e-014 2.38542e-014
lhumerus -52.5538 56.5521 48.8175
lradius 12.2955
lwrist -66.6187
lhand -11.7759 -4.78844
lfingers 7.12502
lthumb 14.2729 24.7011
rfemur -34.9674 6.23704 22.9143
rtibia 35.8843
rfoot -11.305 -2.68882
rtoes -10.2552
lfemur 22.5119 -3.97293 -25.3029
ltibia 13.5109
lfoot -27.2988 9.07514
ltoes 0.769176
1753
root 23.7921 17.0666 -31.7816 -177.921 217.635 -183.395
lowerback 13.3761 -4.77616 2.30356
upperback 3.8158 -6.02409 0.932031
thorax -3.57774 -3.01681 0.664227
lowerneck -3.29316 1.40828 -5.38784
upperneck 8.29283 2.16211 0.372271
head 3.18419 0.900546 1.14024
rclavicle -6.04305e-014 1.33186e-014
rhumerus -43.2397 -25.72 -69.0971
rradius 14.3864
rwrist 33.8313
rhand -16.6702 16.0414
rfingers 7.12502
rthumb 9.55358 -13.722
lclavicle -6.04305e-014 1.33186e-014
lhumerus -51.1113 55.5806 50.5585
lradius 12.3685
lwrist -65.1031
lhand -11.7274 -4.90971
lfingers 7.12502
lthumb 14.3197 24.5765
rfemur -34.9648 5.97193 23.0938
rtibia 36.7381
rfoot -11.1718 -2.37939
rtoes -10.3334
lfemur 22.9816 -3.53722 -25.0553
ltibia 13.5856
lfoot -26.9661 8.59482
ltoes 0.507123
1754
root 23.6996 17.053 -31.6669 -177.909 217.549 -183.454
lowerback 13.3404 -4.7792 2.43716
upperback 3.86214 -6.01248 0.949595
thorax -3.52105 -3.01165 0.60131
lowerneck -3.21129 1.39954 -5.14262
upperneck 8.16236 2.12909 0.37654
head 3.12586 0.895423 1.09456
rclavicle 1.48144e-013 -2.06736e-014
rhumerus -43.1472 -25.993 -68.7694
rradius 14.3876
rwrist 33.9423
rhand -16.7649 16.31
rfingers 7.12502
rthumb 9.46219 -13.4575
lclavicle 1.48144e-013 -2.06736e-014
lhumerus -49.1355 54.2269 52.9167
lradius 12.4841
lwrist -63.0842
lhand -11.7761 -4.96
lfingers 7.12502
lthumb 14.2727 24.5295
rfemur -34.9556 5.68812 23.2908
rtibia 37.5694
rfoot -11.098 -2.08729
rtoes -10.7773
lfemur 23.3128 -3.11729 -24.731
ltibia 13.8317
lfoot -26.6283 8.05102
ltoes -0.182967
1755
root 23.6039 17.0433 -31.5514 -177.898 217.479 -183.493
lowerback 13.2909 -4.75465 2.54063
upperback 3.89792 -5.96908 0.959034
thorax -3.46539 -2.99053 0.540641
lowerneck -3.15483 1.36828 -4.82652
upperneck 8.11745 2.06749 0.340638
head 3.10332 0.874639 1.02393
rclavicle -4.29375e-014 1.07344e-014
rhumerus -43.0714 -26.2553 -68.4588
rradius 14.3629
rwrist 34.0044
rhand -16.829 16.5546
rfingers 7.12502
rthumb 9.40038 -13.2158
lclavicle -4.29375e-014 1.07344e-014
lhumerus -47.4087 52.8697 54.989
lradius 12.6525
lwrist -61.2685
lhand -11.6791 -5.04637
lfingers 7.12502
lthumb 14.3662 24.4365
rfemur -34.9183 5.56378 23.4155
rtibia 38.3564
rfoot -11.0748 -1.89304
rtoes -10.8929
lfemur 23.5361 -2.86028 -24.4946
ltibia 14.2898
lfoot -26.3275 7.6525
ltoes -0.631367
1756
root 23.5074 17.0337 -31.4354 -177.928 217.401 -183.53
lowerback 13.2925 -4.75149 2.64633
upperback 3.93506 -5.95176 0.972146
thorax -3.43597 -2.98227 0.491338
lowerneck -3.10029 1.34746 -4.61278
upperneck 8.06222 2.02331 0.344181
head 3.07628 0.860838 0.984774
rclavicle 1.0471e-013 -2.32578e-014
rhumerus -43.0149 -26.5685 -68.1119
rradius 14.355
rwrist 34.2198
rhand -16.8517 16.7528
rfingers 7.12502
rthumb 9.37847 -13.0186
lclavicle 1.0471e-013 -2.32578e-014
lhumerus -46.0601 51.662 56.6905
lradius 12.8622
lwrist -59.628
lhand -11.6907 -5.22806
lfingers 7.12502
lthumb 14.3551 24.2556
rfemur -34.7902 5.44909 23.5387
rtibia 39.1078
rfoot -11.0021 -1.74694
rtoes -10.8124
lfemur 23.6969 -2.58644 -24.2306
ltibia 14.9437
lfoot -26.0258 7.17887
ltoes -1.24984
